<?xml version="1.0" standalone="no"?>
<!DOCTYPE svg PUBLIC "-//W3C//DTD SVG 20010904//EN"
 "http://www.w3.org/TR/2001/REC-SVG-20010904/DTD/svg10.dtd">
<svg version="1.0" xmlns="http://www.w3.org/2000/svg"
 width="398.000000pt" height="600.000000pt" viewBox="0 0 398.000000 600.000000"
 preserveAspectRatio="xMidYMid meet">

<g transform="translate(0.000000,600.000000) scale(0.100000,-0.100000)"
fill="#000000" stroke="none">
<path d="M1620 5729 c-75 -90 -83 -111 -88 -220 -4 -81 -1 -103 16 -142 16
-37 26 -46 53 -52 113 -24 233 -140 252 -242 8 -39 7 -39 -35 -14 -17 11 -35
18 -39 15 -4 -2 -30 12 -59 31 -67 45 -93 47 -70 6 8 -17 6 -18 -36 -10 -56
11 -101 31 -144 68 l-34 28 42 6 c40 7 69 27 37 27 -38 0 -160 84 -148 103 3
5 0 8 -8 5 -8 -3 -26 13 -43 36 -67 95 -152 161 -196 154 -19 -3 -19 -4 1 -48
67 -148 96 -403 66 -575 -29 -163 -76 -286 -157 -405 -20 -30 -59 -89 -85
-130 -26 -41 -81 -121 -122 -177 l-74 -101 -45 45 c-43 42 -110 80 -122 69 -3
-3 0 -23 6 -45 30 -98 3 -216 -97 -423 -85 -176 -104 -227 -130 -338 -54 -240
-24 -510 83 -742 19 -40 47 -92 63 -114 l28 -42 39 34 c83 72 236 101 368 70
93 -21 199 -77 237 -123 57 -68 93 -159 99 -243 4 -67 1 -84 -28 -158 -32 -83
-78 -144 -140 -184 l-25 -16 20 -20 c11 -11 78 -59 148 -106 129 -86 235 -131
355 -151 31 -5 45 -13 51 -28 4 -12 16 -94 26 -182 10 -88 28 -207 40 -265
l22 -105 47 0 c52 0 50 4 76 -127 9 -48 9 -62 -3 -85 -9 -16 -23 -62 -32 -104
-15 -67 -15 -82 -3 -130 9 -32 13 -81 10 -122 -5 -80 1 -90 77 -123 66 -30
143 -34 170 -10 13 11 21 14 26 7 14 -24 90 -2 98 29 5 21 -9 101 -35 201 -16
62 -20 110 -21 260 -1 167 1 193 24 279 l26 95 111 87 c90 70 112 84 112 68 0
-48 -28 -89 -80 -115 -100 -51 -109 -78 -58 -176 l32 -60 -17 -64 c-22 -81
-21 -102 3 -153 11 -22 20 -53 20 -67 0 -16 12 -39 30 -57 26 -26 36 -30 66
-25 19 3 56 19 82 35 46 28 47 30 53 88 3 32 11 69 18 82 17 32 51 213 51 273
0 62 37 147 111 254 111 161 123 181 132 230 6 28 10 88 11 133 l1 84 49 41
c27 23 69 68 92 99 l42 58 -62 62 c-53 53 -65 73 -80 125 -28 103 -21 256 14
278 15 9 50 81 50 103 0 30 76 101 138 129 103 48 243 40 316 -18 31 -25 36
-22 64 34 36 73 62 191 62 286 0 75 3 88 20 99 13 8 20 23 20 42 0 53 46 126
101 160 27 16 49 34 49 40 0 21 -50 42 -90 38 -35 -3 -40 -1 -40 18 0 12 -7
27 -15 34 -21 17 -75 -38 -75 -76 0 -45 -16 -15 -30 56 -13 72 -98 265 -166
380 -25 42 -90 135 -144 208 l-99 133 31 44 c39 55 32 68 -30 50 -63 -20 -60
-21 -73 25 -9 29 -15 37 -24 30 -9 -8 -16 -2 -25 20 -10 25 -10 37 5 72 18 46
23 217 6 227 -5 3 -14 26 -21 51 -7 25 -29 86 -51 136 -50 118 -59 165 -50
242 6 48 4 62 -6 62 -19 0 -71 -75 -91 -132 -9 -26 -19 -48 -22 -48 -4 0 -19
14 -35 30 -39 41 -56 40 -44 -2 9 -34 11 -83 2 -60 -6 16 -108 94 -153 117
-19 10 -64 28 -99 40 -65 21 -65 22 -78 71 -17 66 -16 157 3 287 11 77 13 112
5 120 -18 18 -104 -52 -170 -138 -4 -6 -4 -20 0 -30 4 -11 8 -49 8 -85 1 -49
-5 -77 -21 -110 -33 -64 -48 -63 -41 3 6 62 -13 141 -52 208 -14 24 -25 40
-25 34 0 -5 10 -26 22 -45 23 -37 30 -119 15 -172 -10 -36 -62 -95 -101 -114
l-31 -16 30 26 c18 16 23 23 11 20 -11 -4 -22 -1 -27 7 -6 11 -9 8 -9 -8 0
-13 -4 -23 -10 -23 -5 0 -10 7 -10 16 0 13 -3 14 -14 5 -11 -10 -15 -8 -20 6
-3 10 -4 3 -2 -14 3 -43 -10 -42 -24 2 -12 36 -103 137 -153 169 -15 10 -25
22 -22 27 3 4 -10 15 -30 25 -19 9 -48 32 -65 50 -37 42 -40 34 -4 -13 25 -32
22 -39 -11 -27 -57 22 -76 204 -31 300 13 29 39 69 58 90 46 54 61 74 55 74
-4 0 -29 -27 -57 -61z m712 -227 c-6 -5 -23 -23 -36 -41 -13 -18 -27 -28 -30
-22 -7 10 52 71 69 71 6 0 4 -4 -3 -8z m-1120 -29 c18 -16 43 -39 55 -53 27
-29 78 -128 71 -136 -3 -3 -29 24 -58 60 -28 36 -65 77 -83 90 -17 13 -31 34
-32 45 -2 28 7 26 47 -6z m1029 -104 c-16 -34 -19 -37 -14 -14 9 45 25 82 29
69 3 -6 -4 -31 -15 -55z m-749 -239 c22 -16 55 -34 74 -40 19 -6 34 -16 34
-21 0 -18 -56 -9 -86 14 -37 27 -107 104 -123 134 -21 40 -11 36 25 -11 20
-26 54 -60 76 -76z m40 -72 c17 -7 9 -14 -24 -22 -22 -5 -28 -2 -36 22 -5 15
-14 36 -18 47 -6 16 0 13 28 -11 20 -18 42 -34 50 -36z m178 31 c0 -5 6 -9 13
-9 7 0 26 -13 42 -30 31 -32 25 -42 -8 -12 -19 17 -20 16 -7 -7 18 -35 -1 -18
-38 33 -20 27 -27 43 -18 40 9 -3 16 -10 16 -15z m578 -15 c43 -9 204 -65 235
-81 16 -8 25 -19 21 -25 -5 -7 -2 -8 6 -3 8 5 17 2 24 -6 6 -8 27 -25 46 -37
l35 -22 -50 5 c-48 5 -49 4 -12 -5 21 -5 52 -17 69 -26 31 -16 31 -16 25 -81
-8 -86 -44 -149 -125 -220 -54 -47 -67 -55 -81 -45 -9 7 -35 22 -58 34 -23 12
-40 25 -37 30 3 4 16 1 28 -8 l24 -15 -22 54 -21 54 -13 -44 -13 -44 -42 23
c-30 17 -48 37 -64 70 -23 49 -68 88 -102 88 -31 0 -26 15 16 49 21 17 32 31
26 31 -6 0 -28 -16 -49 -35 -28 -26 -35 -40 -31 -57 13 -51 -51 45 -98 147
-26 58 -51 105 -55 105 -13 0 -38 -44 -51 -91 -17 -61 -25 -67 -34 -23 -4 21
-13 50 -20 65 -14 25 -13 26 38 50 37 16 70 23 114 24 51 0 58 2 41 11 -20 11
-20 11 3 17 28 8 97 -2 105 -14 3 -5 17 -9 32 -8 l27 0 -32 16 c-18 9 -33 21
-33 25 0 9 73 4 128 -8z m556 -19 c-10 -15 -12 -25 -5 -25 6 0 11 -8 11 -17 0
-13 -3 -14 -12 -5 -9 9 -15 9 -26 -1 -13 -10 -14 -9 -2 13 13 25 40 60 47 60
2 0 -4 -11 -13 -25z m-1034 -10 c13 -14 21 -25 18 -25 -2 0 -15 11 -28 25 -13
14 -21 25 -18 25 2 0 15 -11 28 -25z m-305 -35 c-18 -6 -17 -9 12 -23 18 -10
51 -17 74 -17 40 0 41 -1 23 -14 -18 -13 -16 -15 29 -27 42 -10 47 -14 34 -26
-12 -12 -20 -12 -58 3 -53 21 -106 58 -136 94 l-21 26 31 -4 c27 -4 29 -6 12
-12z m92 14 c-3 -3 -12 -4 -19 -1 -8 3 -5 6 6 6 11 1 17 -2 13 -5z m183 -69
c0 -17 -2 -17 -10 -5 -5 8 -10 24 -10 35 0 17 2 17 10 5 5 -8 10 -24 10 -35z
m217 -26 c12 -27 18 -47 14 -44 -5 2 -14 18 -21 35 -17 42 -30 37 -31 -12 -1
-26 -4 -34 -6 -19 -6 28 5 91 15 91 4 0 17 -23 29 -51z m-389 -34 c23 -10 42
-19 42 -20 0 -2 -14 -19 -31 -37 -16 -18 -44 -58 -62 -88 l-32 -55 -6 111 c-4
62 -10 122 -14 134 -7 22 -7 22 26 -3 19 -14 53 -33 77 -42z m103 -50 c12 31
10 -36 -4 -122 l-12 -72 -39 22 c-22 12 -41 29 -43 37 -4 12 -3 12 5 2 7 -10
11 -5 16 20 3 18 19 58 34 88 23 48 27 52 31 30 3 -23 4 -24 12 -5z m474 -145
c3 -6 -1 -7 -9 -4 -18 7 -21 14 -7 14 6 0 13 -4 16 -10z m-472 -210 c16 -25
40 -56 52 -70 34 -39 38 -59 10 -56 -21 3 -20 1 11 -31 73 -72 78 -93 80 -333
1 -118 7 -251 14 -295 15 -99 69 -273 120 -385 55 -123 64 -156 65 -245 0 -97
-18 -149 -88 -253 -28 -41 -65 -113 -83 -160 -19 -48 -33 -77 -34 -64 0 13 -4
20 -10 17 -6 -3 -10 -1 -10 4 0 6 -5 11 -10 11 -13 0 -3 -47 17 -78 18 -29 12
-37 -16 -22 -42 22 -15 -41 49 -115 23 -26 39 -49 37 -52 -3 -2 -24 1 -48 7
-53 15 -151 110 -169 166 -16 46 -7 133 16 173 9 16 31 35 48 44 45 21 149
102 164 127 11 17 10 23 -3 37 -15 15 -19 14 -43 -4 -15 -11 -52 -52 -82 -91
-30 -39 -56 -69 -58 -67 -7 6 27 61 67 110 23 27 41 53 41 57 0 3 -23 -9 -51
-27 -52 -36 -105 -55 -151 -55 -34 0 -37 16 -4 24 28 7 119 80 122 98 1 7 9
34 18 60 22 68 22 137 -3 258 -26 126 -88 470 -107 595 -17 110 -10 279 17
414 22 106 22 111 10 92 -7 -11 -13 -7 -25 17 -18 36 -38 107 -71 267 -4 17
11 -4 36 -50 23 -44 55 -100 72 -125z m-28 130 c21 -41 13 -37 -26 11 -27 34
-29 40 -11 30 12 -6 29 -25 37 -41z m521 35 c16 -13 16 -14 1 -9 -46 16 -66
-67 -24 -102 22 -19 22 -19 5 2 -21 24 -24 74 -5 74 19 0 31 -12 52 -55 11
-22 38 -60 60 -84 l40 -44 -45 30 c-25 16 -61 36 -80 43 -84 32 -162 86 -182
125 -8 15 -8 17 1 9 8 -8 27 -8 58 -3 52 10 68 4 32 -10 -23 -10 -23 -10 -2
-10 12 -1 30 10 40 24 21 29 23 29 49 10z m-693 -10 c-3 -9 -8 -14 -10 -11 -3
3 -2 9 2 15 9 16 15 13 8 -4z m1150 -12 c-4 -24 2 -32 39 -56 59 -38 86 -43
120 -24 46 26 32 4 -40 -64 -37 -35 -85 -84 -106 -109 l-38 -45 36 50 c77 107
80 138 17 180 -39 28 -70 32 -91 13 -7 -7 4 8 26 34 21 26 39 47 40 48 0 0 -1
-12 -3 -27z m-1536 -25 c-2 -20 4 -23 57 -30 32 -4 61 -10 64 -13 3 -3 19 7
35 22 17 16 27 21 23 13 -4 -8 2 -4 13 10 11 14 21 21 21 16 0 -26 -89 -170
-185 -298 -137 -182 -196 -280 -241 -394 -31 -81 -34 -85 -28 -41 4 28 2 47
-4 47 -5 0 -16 15 -23 33 -7 17 -22 47 -33 66 -10 18 -20 47 -20 64 -1 34 8
49 165 284 58 87 116 177 129 201 27 48 31 51 27 20z m364 -15 c-12 -20 -14
-14 -5 12 4 9 9 14 11 11 3 -2 0 -13 -6 -23z m227 2 c-3 -3 -9 2 -12 12 -6 14
-5 15 5 6 7 -7 10 -15 7 -18z m11 -52 l21 -38 -25 30 c-23 28 -31 45 -21 45 2
0 14 -17 25 -37z m-130 -66 c0 -27 -2 -29 -9 -12 -12 28 -12 57 0 50 6 -3 10
-21 9 -38z m553 -75 c23 -12 37 -21 30 -22 -7 0 -23 5 -35 11 -15 7 -12 1 11
-20 37 -35 32 -37 -56 -16 -76 18 -129 44 -162 80 l-25 28 27 -17 c32 -21 100
-18 105 4 4 13 3 13 -7 0 -10 -13 -11 -13 -7 2 3 9 -4 29 -16 45 -12 15 4 5
35 -23 31 -28 76 -60 100 -72z m-492 -11 c-1 -11 -50 50 -50 62 0 6 11 -4 25
-23 14 -19 25 -36 25 -39z m1195 -21 c9 0 30 7 46 16 29 14 30 14 21 -3 -25
-45 -102 -93 -149 -92 -28 0 -27 0 6 12 19 7 39 19 44 28 14 23 2 49 -24 49
-17 0 -19 3 -10 14 11 13 15 12 32 -5 10 -10 26 -19 34 -19z m-860 -9 c70 -40
71 -51 1 -25 -66 23 -126 51 -126 58 0 10 91 -14 125 -33z m905 -52 c-19 -17
-44 -35 -55 -41 -25 -13 -21 -9 33 36 53 43 72 48 22 5z m70 -22 c0 -5 -4 -6
-9 -3 -14 9 -48 -37 -55 -73 l-6 -35 23 22 c13 12 26 20 29 17 3 -3 11 2 18
11 35 41 68 -171 38 -243 l-11 -28 -6 30 c-5 26 -9 19 -25 -48 -18 -79 -72
-199 -92 -204 -7 -3 -8 14 -2 54 10 69 2 124 -23 177 -27 55 -16 56 22 2 18
-25 34 -44 36 -42 8 8 -50 111 -88 160 -44 55 -45 59 -24 76 8 7 15 18 15 24
1 6 21 24 46 40 25 15 57 43 72 62 24 30 41 31 42 1z m-1537 -49 l5 -56 -29
10 c-16 5 -29 12 -29 14 0 6 44 94 46 91 0 -1 4 -28 7 -59z m-130 -29 c56 -17
149 -42 206 -55 108 -25 160 -49 144 -65 -6 -6 -33 0 -69 15 -32 13 -81 29
-109 35 -27 7 -84 20 -125 30 -43 10 -77 14 -79 8 -2 -5 16 -29 40 -53 51 -52
46 -71 -7 -25 -69 61 -131 141 -109 141 3 0 52 -14 108 -31z m1244 -6 c-14
-14 -19 -15 -29 -4 -11 10 -10 11 3 6 10 -4 20 -2 24 4 3 6 9 11 13 11 3 0 -1
-8 -11 -17z m-567 3 c0 -3 -9 -44 -21 -92 -15 -65 -19 -102 -14 -146 4 -32 4
-58 1 -58 -16 0 -48 91 -58 165 -10 74 -9 86 6 109 12 20 25 26 51 26 19 0 35
-2 35 -4z m1070 -16 c-8 -5 -19 -10 -25 -10 -5 0 -3 5 5 10 8 5 20 10 25 10 6
0 3 -5 -5 -10z m-2392 -31 c23 -17 54 -51 69 -76 24 -42 26 -50 21 -146 -7
-120 -41 -234 -118 -386 -53 -107 -75 -167 -95 -256 -11 -49 -14 -54 -14 -25
-1 34 -2 35 -43 35 -24 0 -57 3 -75 7 -25 6 -33 4 -37 -10 -18 -58 9 105 30
176 28 97 162 381 173 364 4 -7 22 -3 56 13 29 14 53 21 58 16 5 -5 12 -30 15
-56 7 -64 22 -37 22 40 0 96 -55 247 -113 313 -31 34 0 29 51 -9z m1867 -29
c-20 -20 -31 -26 -36 -18 -5 7 5 18 24 29 44 24 45 23 12 -11z m-407 -27 c-10
-2 -26 -2 -35 0 -10 3 -2 5 17 5 19 0 27 -2 18 -5z m-742 -87 c10 -40 143
-162 225 -205 76 -41 76 -42 83 -89 3 -26 17 -110 31 -187 13 -77 25 -143 25
-147 0 -3 -17 -12 -37 -19 -57 -18 -111 -55 -126 -86 -8 -16 -24 -57 -37 -93
-13 -36 -36 -81 -50 -100 -15 -19 -41 -59 -57 -88 l-30 -53 -40 53 c-46 59
-106 175 -135 258 -17 49 -48 231 -48 285 0 17 2 17 10 5 5 -8 10 -25 10 -38
0 -17 5 -22 18 -20 17 2 22 0 72 -31 14 -9 -6 14 -43 50 -65 64 -67 68 -67
115 0 27 5 65 11 84 6 19 12 44 14 55 7 49 48 176 77 236 l31 66 28 -14 c16
-8 32 -25 35 -37z m139 -76 c17 -17 43 -38 58 -47 28 -14 29 -14 22 6 -6 21
-6 21 29 -2 19 -12 35 -30 36 -39 0 -16 -4 -16 -47 3 -72 31 -109 56 -148 102
-19 22 -35 36 -35 29 0 -6 5 -14 10 -17 6 -3 10 -12 10 -18 -1 -21 -60 52 -60
74 0 18 6 16 48 -19 26 -22 61 -54 77 -72z m621 89 c5 -8 8 -8 14 0 5 9 17 8
46 -1 35 -12 39 -17 42 -49 3 -41 -10 -49 -84 -49 -36 0 -45 5 -69 36 -26 34
-26 36 -9 55 19 21 49 25 60 8z m571 -15 c10 -28 -10 -67 -39 -75 -38 -10 -64
-1 -83 28 -15 23 -15 26 1 44 23 25 111 27 121 3z m-259 -20 c13 -9 29 -13 37
-10 11 4 15 -3 15 -27 0 -23 3 -28 9 -18 8 12 14 12 37 -4 19 -12 45 -18 76
-17 32 1 47 -3 45 -11 -3 -17 43 -10 65 10 17 15 18 15 18 -9 0 -49 -33 -134
-70 -178 -20 -25 -47 -63 -58 -85 -11 -22 -28 -49 -37 -60 -9 -11 -6 -1 7 22
18 33 20 45 11 54 -9 9 -15 9 -27 0 -10 -9 -20 -9 -33 -3 -10 6 -75 8 -146 6
-80 -2 -136 0 -149 7 -25 14 -68 3 -68 -16 0 -13 3 -13 20 -3 17 11 24 9 47
-15 31 -31 14 -38 -27 -10 -14 9 -20 10 -13 3 17 -18 5 -40 -23 -40 -29 0 -77
40 -79 67 0 11 -11 32 -23 48 -12 15 -22 32 -22 38 0 5 -23 35 -50 66 -85 95
-84 93 -63 89 14 -2 18 3 16 26 l-2 29 22 -20 c34 -32 86 -55 115 -51 15 2 25
7 24 12 -6 15 21 26 63 24 53 -1 126 36 118 60 -6 15 -5 15 10 3 17 -13 16
-16 -5 -39 l-23 -25 34 19 c18 11 44 25 58 32 13 8 27 20 30 28 7 18 13 18 41
-2z m-88 -4 c0 -5 -5 -10 -11 -10 -5 0 -7 5 -4 10 3 6 8 10 11 10 2 0 4 -4 4
-10z m917 -117 c46 -66 98 -165 65 -125 -15 20 -20 21 -30 9 -7 -7 -9 -17 -5
-20 6 -6 -14 -11 -44 -10 -8 1 -6 -12 8 -38 39 -78 9 -36 -57 79 -85 148 -81
139 -61 124 9 -8 33 -12 54 -11 27 2 37 -1 35 -10 -1 -7 2 -10 8 -6 6 4 5 16
-5 36 -24 45 -12 35 32 -28z m-477 -283 c0 -61 28 -239 54 -345 43 -171 100
-288 184 -377 44 -46 36 -60 -12 -23 -19 14 -38 26 -42 24 -3 -1 -28 17 -55
40 -54 46 -61 44 -26 -9 65 -96 71 -114 18 -46 -17 21 -31 35 -31 31 0 -4 18
-47 40 -96 46 -103 51 -159 19 -229 -11 -25 -22 -54 -25 -64 -4 -23 -43 -66
-59 -66 -6 0 -28 -9 -50 -20 -22 -11 -59 -20 -85 -20 l-45 0 30 18 c35 22 82
74 109 123 19 33 21 39 24 67 1 6 8 12 15 12 7 0 22 7 33 16 18 15 18 15 -3 5
-44 -22 -74 -1 -40 27 14 12 22 160 10 178 -9 12 -53 25 -53 16 0 -4 4 -23 9
-42 15 -57 22 -132 12 -125 -5 3 -12 19 -16 35 -4 17 -27 54 -52 83 -57 65
-102 160 -112 232 -9 66 -2 180 9 150 4 -11 5 18 2 64 -4 62 -2 82 6 77 7 -4
12 -13 12 -20 0 -8 8 -20 17 -27 15 -13 16 -12 8 6 -12 26 -19 169 -10 204 l7
26 16 -30 17 -30 6 87 c7 97 23 133 46 102 7 -10 13 -34 13 -54z m-216 36 c-6
-16 -34 -30 -34 -18 0 5 5 13 12 20 16 16 29 15 22 -2z m-107 -15 c35 13 41
11 16 -6 -35 -24 -143 -28 -143 -5 0 13 31 17 69 9 18 -4 45 -3 58 2z m58 -20
c-3 -6 -11 -11 -17 -11 -6 0 -6 6 2 15 14 17 26 13 15 -4z m120 -169 c-6 -54
-9 -62 -23 -56 -17 7 -59 18 -117 30 -16 4 -25 8 -18 11 7 2 43 43 80 90 l68
86 8 -49 c5 -27 6 -77 2 -112z m-92 123 c-3 -9 -8 -14 -10 -11 -3 3 -2 9 2 15
9 16 15 13 8 -4z m-18 -24 c3 -5 0 -13 -6 -17 -8 -4 -9 -3 -5 4 4 7 2 12 -5
12 -6 0 -9 -8 -6 -20 3 -10 -1 -26 -7 -36 -16 -21 -94 -29 -141 -14 l-37 12
20 20 c14 14 40 22 86 27 36 4 68 10 72 14 10 10 22 9 29 -2z m784 -72 c10
-29 8 -34 -20 -60 -30 -28 -69 -39 -69 -19 0 6 4 10 9 10 8 0 17 18 41 83 12
33 24 29 39 -14z m273 -44 c-2 -14 0 -31 6 -38 15 -18 26 -113 14 -121 -18
-11 -35 24 -40 80 -4 45 -7 52 -19 43 -11 -10 -12 -8 -3 17 18 46 50 61 42 19z
m127 -39 c28 -15 21 -21 -34 -32 -22 -4 -43 -12 -47 -18 -4 -6 -8 3 -8 20 0
17 3 34 7 37 11 11 56 7 82 -7z m-204 -42 c47 -38 75 -100 75 -163 l-1 -36
-24 45 c-13 25 -24 53 -25 63 0 9 -6 18 -12 18 -7 1 -20 2 -28 3 -8 0 -20 12
-27 26 -13 25 -18 80 -7 80 3 0 25 -16 49 -36z m-1753 -69 c18 -78 17 -171 -2
-160 -5 3 -14 -3 -20 -12 -11 -17 -11 -17 -6 0 7 21 2 21 -27 2 -13 -8 -54
-25 -92 -38 -39 -13 -78 -27 -87 -31 -13 -6 -18 -4 -18 6 0 8 6 15 13 15 6 0
36 17 65 36 30 20 76 45 103 54 44 16 49 20 48 48 -1 16 -4 41 -8 55 l-7 25
-7 -30 c-5 -25 -19 -36 -80 -66 l-74 -36 13 26 c7 15 27 40 44 56 22 21 30 38
30 64 0 27 -3 32 -12 23 -15 -15 -32 -16 -22 -1 13 22 70 49 98 47 29 -3 31
-6 48 -83z m1512 63 c3 -13 6 -39 6 -58 0 -32 11 -63 21 -61 17 2 49 -14 49
-25 0 -10 -8 -13 -27 -9 -16 3 5 -7 46 -23 58 -23 75 -34 78 -51 2 -16 -1 -20
-9 -15 -22 14 -96 16 -119 4 -18 -10 -25 -8 -50 22 -34 40 -35 44 -6 53 19 7
18 9 -13 12 -51 6 -80 38 -80 88 0 54 20 80 63 83 28 2 36 -2 41 -20z m-1186
0 c-6 -18 -28 -21 -28 -4 0 9 7 16 16 16 9 0 14 -5 12 -12z m528 -38 c9 0 14
-11 14 -30 0 -16 -2 -30 -5 -30 -5 0 -35 69 -34 79 0 3 3 0 6 -6 2 -7 11 -13
19 -13z m-216 -10 c0 -12 -28 -25 -36 -17 -9 9 6 27 22 27 8 0 14 -5 14 -10z
m124 -10 c6 0 26 -16 45 -35 18 -19 37 -35 42 -35 5 0 9 -39 9 -87 0 -49 4
-105 9 -125 5 -21 5 -36 1 -33 -4 3 -24 -2 -44 -10 -19 -8 -54 -15 -76 -15
-42 0 -48 -7 -27 -30 6 -8 0 -4 -15 9 -34 30 -47 21 -24 -16 l17 -28 -20 23
c-11 12 -21 27 -23 33 -3 8 -31 7 -100 -5 -111 -19 -217 -21 -251 -5 -25 11
-25 11 -10 68 9 33 13 84 11 123 -3 60 -2 67 17 72 13 4 27 -3 40 -18 11 -13
36 -29 55 -35 43 -13 102 -12 93 2 -3 6 -1 7 6 3 6 -4 18 -3 26 4 10 8 24 8
52 1 48 -14 76 -14 68 -1 -3 5 0 7 8 5 22 -9 47 28 53 81 7 61 14 84 21 67 3
-7 10 -13 17 -13z m-284 -4 c0 -8 -5 -18 -11 -22 -14 -8 -33 11 -25 25 10 16
36 13 36 -3z m1224 -6 c29 -11 86 -84 86 -112 0 -10 -7 -18 -15 -18 -8 0 -15
4 -15 10 0 5 -20 29 -45 53 -25 25 -45 52 -45 61 0 19 1 19 34 6z m-2593 -147
c7 -10 10 -15 5 -11 -4 4 -35 -13 -68 -38 -57 -42 -79 -50 -63 -24 6 10 103
90 110 90 1 0 9 -8 16 -17z m112 -31 c21 -23 6 -47 -33 -55 -14 -3 -45 -13
-70 -23 -30 -11 -55 -15 -75 -10 -28 7 -25 9 61 56 49 27 92 49 95 50 3 0 13
-8 22 -18z m135 -106 c40 -41 72 -77 72 -80 0 -3 -21 9 -47 27 -25 18 -44 35
-42 39 2 3 -5 15 -15 27 -18 20 -20 20 -38 4 -28 -25 -162 -111 -167 -107 -2
2 2 10 8 18 7 8 10 19 7 24 -7 11 119 122 138 122 7 0 45 -33 84 -74z m557 49
c-26 -12 -27 -13 -8 -14 33 -1 36 -16 13 -61 -23 -46 -84 -89 -123 -87 -27 2
-28 4 -41 87 -1 8 -10 14 -21 13 -27 -3 57 35 125 57 66 22 97 25 55 5z m-945
-59 c0 -2 -7 -7 -16 -10 -8 -3 -12 -2 -9 4 6 10 25 14 25 6z m703 -39 c49 -21
58 -37 46 -81 -20 -74 -91 -91 -182 -44 -21 10 -45 17 -52 14 -14 -5 -23 10
-35 62 -6 26 -5 32 5 28 38 -14 85 -18 85 -6 0 37 74 51 133 27z m907 -20 c0
-2 -12 -14 -27 -28 l-28 -24 24 28 c23 25 31 32 31 24z m99 -62 c0 -5 -6 1
-14 15 -8 14 -14 30 -14 35 0 6 6 -1 14 -15 8 -14 14 -29 14 -35z m827 47 c-6
-10 -96 -75 -96 -69 0 5 91 77 97 77 2 0 2 -3 -1 -8z m-2075 -87 c-3 -93 -5
-94 -53 -83 -23 5 -48 14 -55 20 -9 7 -22 4 -48 -11 -19 -11 -35 -16 -35 -11
0 19 40 50 63 50 28 0 62 34 52 51 -10 15 34 50 59 46 18 -2 20 -9 17 -62z
m549 25 c0 -18 -40 -90 -49 -90 -18 0 -41 12 -41 22 0 18 55 78 73 78 9 0 17
-5 17 -10z m1228 -45 c-3 -3 -9 2 -12 12 -6 14 -5 15 5 6 7 -7 10 -15 7 -18z
m9 -67 c-3 -7 -5 -2 -5 12 0 14 2 19 5 13 2 -7 2 -19 0 -25z m-1715 -33 c29
-14 49 -25 44 -25 -18 0 -106 35 -106 42 0 11 2 11 62 -17z m508 -332 c0 -5
-7 -17 -15 -27 -9 -12 -15 -42 -15 -78 0 -137 98 -215 171 -137 27 29 33 50
31 109 -1 22 1 21 10 -7 14 -43 2 -98 -30 -134 -22 -24 -39 -32 -87 -39 -33
-5 -76 -11 -95 -15 l-35 -6 38 21 c21 11 42 18 48 14 16 -10 -6 30 -26 46 -9
8 -25 31 -36 52 -19 37 -34 53 -23 23 4 -11 -1 -15 -17 -15 -27 -1 -59 -22
-59 -39 0 -6 -4 -11 -10 -11 -5 0 -10 16 -10 35 0 26 11 51 40 90 22 30 37 55
33 55 -4 0 8 16 27 35 31 32 60 46 60 28z m130 -75 c55 -90 -17 -210 -83 -139
-61 67 -72 109 -35 135 21 15 68 22 68 11 0 -2 -9 -19 -20 -37 -11 -18 -20
-39 -20 -47 0 -20 40 -61 59 -61 13 1 13 3 -3 15 -19 14 -19 15 22 60 16 18
15 30 -3 65 -21 40 -10 38 15 -2z m-392 -160 c4 -31 -15 -71 -28 -63 -6 4 -7
-1 -3 -11 3 -10 2 -15 -3 -12 -5 3 -20 2 -33 -3 -18 -7 -22 -15 -19 -34 3 -14
2 -25 -3 -25 -17 0 -22 74 -7 114 23 64 90 88 96 34z m542 -25 c-12 -21 -19
-30 -15 -19 4 14 1 17 -12 11 -12 -4 -7 5 11 24 38 39 43 33 16 -16z m-66 2
c3 -8 1 -15 -4 -15 -6 0 -10 7 -10 15 0 8 2 15 4 15 2 0 6 -7 10 -15z m46 -49
c0 -2 -8 -10 -17 -17 -16 -13 -17 -12 -4 4 13 16 21 21 21 13z m684 -14 c9
-11 34 -70 55 -133 21 -63 48 -133 59 -156 12 -23 22 -51 22 -62 0 -40 -83
-69 -109 -38 -6 7 -18 45 -26 83 -14 58 -23 76 -61 115 -34 35 -47 56 -51 86
-5 36 -1 44 34 81 45 47 53 50 77 24z m-926 -85 c27 -28 44 -84 36 -112 -20
-65 -79 -74 -130 -19 -19 19 -34 41 -34 49 0 7 -5 15 -11 17 -13 4 15 67 31
69 6 1 14 2 19 3 5 0 13 4 17 9 15 14 51 6 72 -16z m290 -64 c-1 -5 4 -21 11
-38 30 -72 42 -161 39 -275 l-3 -115 -29 -3 c-46 -6 -98 66 -111 153 -10 65
-40 147 -50 137 -4 -4 -2 4 5 17 18 34 91 112 115 122 26 10 25 10 23 2z
m-538 -63 c0 -4 -16 -20 -35 -34 -33 -26 -35 -26 -35 -7 0 27 35 62 55 55 8
-4 15 -10 15 -14z m479 -616 c14 -12 -19 -1 -35 12 -18 14 -18 14 6 3 14 -6
27 -13 29 -15z m483 -235 l33 -31 -40 28 c-22 16 -42 29 -44 31 -2 2 1 3 7 3
7 0 26 -14 44 -31z m8 -39 c0 -5 -15 -10 -32 -9 -31 1 -32 1 -8 9 35 11 40 11
40 0z m-67 -90 c-4 -42 -30 -115 -40 -116 -29 -2 -33 -5 -33 -17 0 -8 10 -19
23 -25 12 -6 16 -11 10 -11 -21 -1 -53 37 -53 62 0 35 15 50 40 42 15 -5 20
-4 16 4 -4 6 -4 27 0 46 5 26 11 35 23 33 9 -2 15 -10 14 -18z m-423 -144 c0
-2 -11 -6 -25 -8 -13 -3 -22 -1 -19 3 5 9 44 13 44 5z m57 -55 c-3 -13 1 -21
12 -24 13 -3 13 -5 -4 -11 -11 -4 -46 -19 -77 -34 -62 -27 -94 -24 -35 4 20 9
33 22 31 29 -3 7 10 22 28 33 42 26 52 27 45 3z m61 -71 c4 -12 2 -13 -9 -2
-18 17 -34 15 -19 -3 7 -8 9 -15 6 -15 -15 0 -46 21 -46 31 0 16 63 6 68 -11z
m-14 -79 c18 -15 19 -15 12 3 -5 16 -4 17 8 7 8 -7 18 -26 21 -42 4 -16 11
-31 16 -34 5 -4 9 -14 9 -23 0 -13 -2 -13 -14 4 -12 15 -18 17 -33 8 -30 -19
-22 -39 16 -37 22 1 30 -2 23 -9 -17 -17 -67 -5 -70 17 -7 47 -13 67 -20 60
-4 -4 -7 -18 -7 -32 0 -32 -31 -55 -45 -33 -5 8 -7 23 -4 34 4 12 2 16 -5 12
-6 -4 -11 -16 -11 -27 0 -15 -6 -20 -22 -17 -18 2 -23 9 -21 29 2 29 -34 56
-61 46 -8 -3 -18 -2 -21 3 -6 10 7 14 31 11 6 -1 17 6 24 14 7 8 22 15 34 15
11 0 27 4 33 8 19 12 86 2 107 -17z m-228 -68 c-7 -7 -26 7 -26 19 0 6 6 6 15
-2 9 -7 13 -15 11 -17z m58 -16 c-9 -25 -34 -21 -34 6 0 13 3 27 7 31 11 11
34 -19 27 -37z"/>
<path d="M2450 5000 c8 -5 20 -10 25 -10 6 0 3 5 -5 10 -8 5 -19 10 -25 10 -5
0 -3 -5 5 -10z"/>
<path d="M2403 4965 c20 -14 37 -29 37 -33 0 -4 -20 -15 -44 -25 -49 -20 -101
-67 -73 -67 8 0 27 -15 41 -32 14 -18 26 -30 26 -26 0 4 -14 23 -31 42 l-31
35 34 21 c18 11 50 25 70 30 l37 11 -38 34 c-21 19 -45 35 -52 35 -8 0 3 -11
24 -25z"/>
<path d="M2500 4980 c8 -5 20 -10 25 -10 6 0 3 5 -5 10 -8 5 -19 10 -25 10 -5
0 -3 -5 5 -10z"/>
<path d="M2141 4977 c2 -1 15 -11 29 -22 l25 -20 -19 23 c-11 12 -24 22 -29
22 -6 0 -8 -1 -6 -3z"/>
<path d="M2498 4913 c12 -2 30 -2 40 0 9 3 -1 5 -23 4 -22 0 -30 -2 -17 -4z"/>
<path d="M1816 3035 c-24 -24 -48 -75 -36 -75 12 0 65 78 58 86 -3 3 -13 -2
-22 -11z"/>
<path d="M2058 4623 c7 -3 16 -2 19 1 4 3 -2 6 -13 5 -11 0 -14 -3 -6 -6z"/>
<path d="M1238 3798 c-13 -13 -17 -18 -8 -12 8 6 24 16 35 22 11 6 15 12 8 12
-7 0 -22 -10 -35 -22z"/>
<path d="M2387 3789 c-10 -6 -25 -8 -33 -5 -44 17 16 -55 70 -84 22 -11 31
-12 44 -2 9 7 27 16 39 21 24 11 37 40 27 65 -6 16 -8 16 -26 -1 -15 -14 -24
-15 -46 -6 -15 6 -34 13 -42 17 -8 3 -23 1 -33 -5z"/>
<path d="M2672 3250 c0 -14 2 -19 5 -12 2 6 2 18 0 25 -3 6 -5 1 -5 -13z"/>
<path d="M2930 2927 c0 -2 15 -16 33 -33 l32 -29 -29 33 c-28 30 -36 37 -36
29z"/>
<path d="M2884 2469 c-24 -26 -25 -30 -7 -20 13 6 27 20 33 31 15 28 8 25 -26
-11z"/>
<path d="M2085 2960 c-11 -17 5 -30 37 -30 26 0 29 2 18 15 -11 13 -15 13 -21
3 -8 -12 -13 -4 -10 15 2 11 -17 9 -24 -3z"/>
<path d="M818 2993 c7 -3 16 -2 19 1 4 3 -2 6 -13 5 -11 0 -14 -3 -6 -6z"/>
<path d="M1746 1943 c-11 -12 -6 -59 10 -81 23 -33 -1 -26 -30 9 -19 22 -25
38 -20 53 6 20 5 20 -11 4 -36 -34 9 -135 60 -135 14 0 22 4 18 10 -4 6 -1 7
7 2 30 -18 42 68 14 110 -16 25 -38 38 -48 28z"/>
<path d="M1700 5742 c0 -26 29 -68 83 -120 31 -28 59 -52 62 -52 4 0 -19 24
-51 52 -31 29 -65 71 -75 93 -10 22 -19 34 -19 27z"/>
<path d="M1631 5697 c0 -9 -13 -35 -28 -58 l-26 -40 30 -42 c17 -23 53 -58 79
-77 27 -19 42 -25 33 -15 -34 41 -71 129 -78 189 -5 33 -9 53 -10 43z"/>
<path d="M1940 5558 c0 -38 -1 -40 -17 -26 -10 9 -29 21 -43 27 -21 10 -22 9
-6 -1 10 -7 39 -28 64 -47 38 -29 43 -31 29 -11 -16 24 -25 101 -9 86 4 -4 7
-11 7 -15 0 -4 15 -24 33 -46 17 -22 32 -36 32 -33 0 4 -14 23 -31 43 -17 19
-26 35 -21 35 12 0 142 -108 142 -118 1 -4 12 -20 26 -37 23 -26 24 -27 13 -5
-25 49 -183 190 -214 190 -3 0 -5 -19 -5 -42z"/>
<path d="M1518 5333 c7 -3 16 -2 19 1 4 3 -2 6 -13 5 -11 0 -14 -3 -6 -6z"/>
<path d="M1388 5323 c7 -3 16 -2 19 1 4 3 -2 6 -13 5 -11 0 -14 -3 -6 -6z"/>
<path d="M1468 5323 c6 -2 18 -2 25 0 6 3 1 5 -13 5 -14 0 -19 -2 -12 -5z"/>
<path d="M3202 2520 c-19 -34 -29 -36 -58 -16 -27 19 -54 5 -35 -18 20 -24 16
-82 -9 -116 -25 -35 -22 -53 22 -107 17 -21 28 -30 24 -19 -5 16 -3 17 20 12
14 -4 35 -4 45 -1 17 6 19 12 13 38 -3 18 -15 44 -25 59 -21 30 -24 51 -9 78
10 19 12 19 41 -7 18 -16 28 -33 24 -42 -3 -10 0 -9 10 3 29 38 15 103 -29
138 -29 24 -8 22 32 -2 22 -14 32 -27 32 -45 0 -38 25 -92 48 -104 24 -13 54
-15 35 -3 -9 6 -9 18 1 52 10 34 15 40 19 25 3 -15 5 -16 6 -3 1 22 -44 75
-80 93 -15 8 -46 15 -69 15 -35 0 -43 -4 -58 -30z"/>
<path d="M3061 2464 c-23 -30 -26 -40 -11 -49 6 -3 10 -1 10 4 0 6 6 11 14 11
16 0 27 33 16 50 -5 8 -14 3 -29 -16z"/>
<path d="M851 2444 c-11 -14 -21 -30 -23 -36 -3 -7 -14 -6 -33 4 -17 8 -38 13
-48 10 -16 -3 -16 -5 3 -29 25 -32 25 -40 -3 -94 -13 -24 -21 -53 -19 -64 5
-26 50 -85 64 -85 7 0 7 4 0 13 -8 9 0 11 35 8 l45 -3 -7 33 c-4 19 -17 50
-28 70 -18 31 -19 40 -8 66 l12 31 33 -34 c18 -19 36 -31 39 -27 4 3 7 24 7
45 0 30 -7 46 -29 69 -32 32 -26 37 18 14 23 -12 29 -23 35 -63 4 -32 14 -56
29 -69 28 -25 55 -35 62 -22 4 5 3 9 -2 8 -28 -5 -34 2 -19 23 9 12 16 32 16
43 0 16 2 17 10 5 8 -13 10 -13 10 1 0 27 -41 70 -84 90 -57 26 -91 24 -115
-7z"/>
<path d="M565 2430 c3 -5 8 -10 11 -10 2 0 4 5 4 10 0 6 -5 10 -11 10 -5 0 -7
-4 -4 -10z"/>
<path d="M696 2368 c-11 -43 -6 -49 19 -22 25 27 25 44 1 44 -8 0 -16 -10 -20
-22z"/>
<path d="M3306 2295 c10 -8 33 -14 49 -14 26 0 27 1 12 10 -10 6 -25 8 -33 5
-8 -3 -14 -1 -14 4 0 6 -8 10 -17 10 -15 0 -14 -2 3 -15z"/>
<path d="M3430 2274 c-6 -14 -10 -36 -10 -50 0 -13 -4 -24 -10 -24 -5 0 -10 7
-10 15 0 17 -42 41 -85 47 -16 3 -24 3 -17 1 28 -10 -2 -73 -35 -73 -31 0 -23
-13 26 -38 28 -15 42 -17 50 -9 14 14 14 44 1 52 -5 3 -10 11 -10 17 0 6 10 2
23 -10 23 -22 53 -28 72 -14 6 4 22 23 35 42 13 19 17 29 10 23 -22 -21 -30
-15 -23 17 7 37 -4 39 -17 4z"/>
<path d="M949 2210 c13 -11 35 -20 49 -20 35 0 17 15 -33 29 l-40 10 24 -19z"/>
<path d="M1071 2189 c-6 -18 -11 -43 -11 -55 0 -13 -4 -24 -10 -24 -5 0 -10 7
-10 15 0 19 -38 44 -76 49 -16 2 -24 2 -18 -1 22 -8 -7 -60 -39 -70 l-29 -8
41 -23 c23 -13 48 -21 56 -18 18 7 20 47 3 64 -7 7 -8 12 -2 12 6 0 19 -9 29
-20 27 -30 50 -24 86 23 18 23 26 36 19 30 -23 -21 -29 -15 -23 22 7 44 -1 45
-16 4z"/>
<path d="M3070 2185 c32 -33 70 -47 70 -25 0 11 -74 60 -92 60 -6 0 3 -16 22
-35z"/>
<path d="M3419 2145 c-66 -63 -97 -74 -145 -51 -19 9 -49 16 -66 16 l-31 0 21
-23 c12 -13 19 -27 15 -31 -4 -4 4 -3 17 2 18 7 33 5 52 -4 34 -17 63 -7 122
42 39 33 83 91 74 99 -2 2 -28 -21 -59 -50z"/>
<path d="M3214 2172 c3 -5 0 -13 -6 -15 -8 -3 -6 -6 5 -6 19 -1 23 14 5 25 -6
4 -8 3 -4 -4z"/>
<path d="M707 2106 c23 -31 51 -48 64 -40 13 8 -6 31 -42 50 -39 20 -43 18
-22 -10z"/>
<path d="M1058 2055 c-68 -64 -102 -74 -149 -46 -26 15 -42 18 -64 12 l-30 -8
23 -12 c12 -6 20 -17 16 -23 -5 -7 2 -9 21 -4 18 5 35 2 51 -9 27 -18 38 -14
112 38 38 28 90 93 81 102 -2 2 -30 -21 -61 -50z"/>
<path d="M853 2075 c0 -8 4 -12 9 -9 4 3 8 9 8 15 0 5 -4 9 -8 9 -5 0 -9 -7
-9 -15z"/>
</g>
</svg>
